<svg id="Outline" height="512" viewBox="0 0 32 32" width="512" xmlns="http://www.w3.org/2000/svg"><g><path d="m12 0h-9c-1.6543 0-3 1.3457-3 3v9c0 1.6543 1.3457 3 3 3h9c1.6543 0 3-1.3457 3-3v-9c0-1.6543-1.3457-3-3-3zm1 12c0 .55127-.44824 1-1 1h-9c-.55176 0-1-.44873-1-1v-9c0-.55127.44824-1 1-1h9c.55176 0 1 .44873 1 1z"/><path d="m29 0h-9c-1.6543 0-3 1.3457-3 3v9c0 1.6543 1.3457 3 3 3h9c1.6543 0 3-1.3457 3-3v-9c0-1.6543-1.3457-3-3-3zm1 12c0 .55127-.44824 1-1 1h-9c-.55176 0-1-.44873-1-1v-9c0-.55127.44824-1 1-1h9c.55176 0 1 .44873 1 1z"/><path d="m29 17h-9c-1.6543 0-3 1.3457-3 3v9c0 1.6543 1.3457 3 3 3h9c1.6543 0 3-1.3457 3-3v-9c0-1.6543-1.3457-3-3-3zm1 12c0 .55127-.44824 1-1 1h-9c-.55176 0-1-.44873-1-1v-9c0-.55127.44824-1 1-1h9c.55176 0 1 .44873 1 1z"/><path d="m12 17h-9c-1.6543 0-3 1.3457-3 3v9c0 1.6543 1.3457 3 3 3h9c1.6543 0 3-1.3457 3-3v-9c0-1.6543-1.3457-3-3-3zm1 12c0 .55127-.44824 1-1 1h-9c-.55176 0-1-.44873-1-1v-9c0-.55127.44824-1 1-1h9c.55176 0 1 .44873 1 1z"/></g></svg>