<svg height="512" viewBox="0 0 24 24" width="512" xmlns="http://www.w3.org/2000/svg"><g id="Layer_2" data-name="Layer 2"><path d="m18 2h-12a3 3 0 0 0 -3 3v14.8a2 2 0 0 0 2.86 1.81c.24-.12.45-.25.67-.38a2.35 2.35 0 0 1 1.47-.47 2.38 2.38 0 0 1 1.48.47 4.29 4.29 0 0 0 2.52.77 4.28 4.28 0 0 0 2.52-.77 2.37 2.37 0 0 1 1.48-.47 2.33 2.33 0 0 1 1.47.47 7.19 7.19 0 0 0 .67.37 2 2 0 0 0 2.86-1.8v-14.8a3 3 0 0 0 -3-3zm-6 14h-4a1 1 0 0 1 0-2h4a1 1 0 0 1 0 2zm4-4h-8a1 1 0 0 1 0-2h8a1 1 0 0 1 0 2zm0-4h-8a1 1 0 0 1 0-2h8a1 1 0 0 1 0 2z"/></g></svg>