<svg id="Capa_1" enable-background="new 0 0 497 497" height="512" viewBox="0 0 497 497" width="512" xmlns="http://www.w3.org/2000/svg"><g><path d="m362.808 480.964h-14l-7.958-10-7.5 10h-50.43l-7.5-10-7.5 10h-50.43l-7.5-10-7.5 10h-24.458c-7.145 0-12.937-5.792-12.937-12.937v-47.671l210.648-10v57.671c.001 7.145-5.791 12.937-12.935 12.937z" fill="#eaf3ff"/><path d="m361.744 410.357v57.671c0 7.145-5.792 12.937-12.937 12.937h24c7.145 0 12.937-5.792 12.937-12.937v-47.671z" fill="#d5eaff"/><g fill="#ffe177"><path d="m209.991 443.161c-4.143 0-7.5 3.358-7.5 7.5v30.304h15v-30.304c0-4.142-3.358-7.5-7.5-7.5z"/><path d="m275.42 443.161c-4.142 0-7.5 3.358-7.5 7.5v30.304h15v-30.304c0-4.142-3.357-7.5-7.5-7.5z"/><path d="m340.85 443.161c-4.143 0-7.5 3.358-7.5 7.5v30.304h15v-30.304c0-4.142-3.357-7.5-7.5-7.5z"/></g><path d="m477.641 260.064c-10.178-10.178-8.909-2.601-27.596-5.628-2.729 1.452-5.293 3.328-7.592 5.628l-36.465 36.465-10-123.292c0-72.111-48.457-129.568-120.568-129.568-4.507 0-8.961-.772-13.35-.326-65.84 6.686-117.218 62.29-117.218 129.894v227.715c0 10.717 8.688 19.405 19.405 19.405h212.326c10.717 0 19.405-8.688 19.405-19.405v-14.046l81.653-81.653c12.479-12.479 12.479-32.71 0-45.189z" fill="#5e9ad8"/><path d="m375.988 173.238v113.292c0 5.523 4.477 10 10 10h20v-37.69l-10-27.058 10-58.544c0-72.111-58.457-130.568-130.568-130.568-5.074 0-10.077.3-15 .863 65.045 7.441 115.568 62.668 115.568 129.705z" fill="#3e84cb"/><path d="m402.093 248.5c-15.992 0-16.337 24.31-26.097 31.719-3.522 2.674-7.763 4.493-13.534 4.493-21.763 0-21.763-25.873-43.527-25.873-21.76 0-21.76 25.873-43.521 25.873s-21.761-25.873-43.522-25.873c-21.76 0-21.76 25.873-43.52 25.873s-21.76-25.873-43.519-25.873v-85.601c21.76 0 21.76 25.873 43.519 25.873 21.76 0 21.76-25.873 43.52-25.873 21.761 0 21.761 25.873 43.522 25.873 21.76 0 21.76-25.873 43.521-25.873 21.763 0 21.763 25.873 43.527 25.873 5.441 0 9.522-1.617 12.922-4.043z" fill="#ff8086"/><path d="m375.988 194.609v85.601c9.759-7.41 14.008-21.371 30-21.371v-85.601c-15.992 0-20.24 13.961-30 21.371z" fill="#ff646f"/><path d="m487.641 260.064c-10.178-10.178-25.514-12.051-37.594-5.625 2.729 1.452 5.294 3.325 7.594 5.625 12.478 12.478 12.478 32.71 0 45.188l-78.724 78.725c-1.875 1.875-2.929 4.419-2.929 7.071v9.904c0 10.717-8.688 19.405-19.405 19.405h30c10.717 0 19.405-8.688 19.405-19.405v-14.046l81.653-81.654c12.479-12.478 12.479-32.709 0-45.188z" fill="#3e84cb"/><path d="m217.955 454.33h-14l-7.958-10-7.5 10h-50.43l-11.152-10-3.848 10h-50.43l-7.5-10-7.5 10h-24.457c-7.145 0-12.937-5.792-12.937-12.937v-47.671l210.648-10v57.671c.001 7.145-5.791 12.937-12.936 12.937z" fill="#eaf3ff"/><path d="m216.892 383.723v57.671c0 7.145-5.792 12.937-12.937 12.937h24c7.145 0 12.937-5.792 12.937-12.937v-47.671z" fill="#d5eaff"/><path d="m65.138 416.526c-4.143 0-7.5 3.358-7.5 7.5v30.304h15v-30.304c0-4.142-3.358-7.5-7.5-7.5z" fill="#ffe177"/><path d="m130.568 416.526c-4.143 0-7.5 3.358-7.5 7.5v30.304h15v-30.304c0-4.142-3.358-7.5-7.5-7.5z" fill="#ffe177"/><path d="m195.998 416.526c-4.143 0-7.5 3.358-7.5 7.5v30.304h15v-30.304c0-4.142-3.357-7.5-7.5-7.5z" fill="#ffe177"/><path d="m332.789 233.43c-10.178-10.179-14.583-5.459-27.596-5.628-2.729 1.452-5.293 3.328-7.592 5.628l-36.465 36.465-10-123.292c0-72.111-48.457-129.568-120.568-129.568-4.507 0-8.96-.772-13.35-.326-65.84 6.687-117.218 62.291-117.218 129.894l10 37.77-10 47.832v142.113c0 10.717 8.688 19.405 19.405 19.405h212.326c10.717 0 19.405-8.688 19.405-19.405v-14.046l81.653-81.653c12.478-12.479 12.478-32.711 0-45.189z" fill="#5e9ad8"/><path d="m342.789 233.43c-10.178-10.178-25.514-12.051-37.594-5.625 2.73 1.452 5.294 3.325 7.594 5.625 12.478 12.478 12.478 32.71 0 45.188l-78.724 78.725c-1.875 1.875-2.929 4.419-2.929 7.071v9.904c0 10.717-8.688 19.405-19.405 19.405h30c10.717 0 19.405-8.688 19.405-19.405v-14.046l81.653-81.654c12.478-12.478 12.478-32.71 0-45.188z" fill="#3e84cb"/><path d="m231.136 146.603v113.292c0 5.523 4.477 10 10 10h20v-37.69l-10-21.203 10-64.398c0-72.111-58.457-130.568-130.568-130.568-5.074 0-10.077.3-15 .863 65.044 7.441 115.568 62.667 115.568 129.704z" fill="#3e84cb"/><path d="m249.136 222.205c-15.992 0-8.233 23.971-17.993 31.38-3.522 2.674-7.763 4.493-13.534 4.493-21.763 0-21.763-25.873-43.527-25.873-21.76 0-21.76 25.873-43.521 25.873s-21.761-25.873-43.522-25.873c-21.76 0-21.76 25.873-43.52 25.873s-21.76-25.873-43.519-25.873v-85.601c21.76 0 21.76 25.873 43.519 25.873 21.76 0 21.76-25.873 43.52-25.873 21.761 0 21.761 25.873 43.522 25.873 21.76 0 21.76-25.873 43.521-25.873 21.763 0 21.763 25.873 43.527 25.873 5.771 0 10.012-1.819 13.534-4.493z" fill="#ff8086"/><path d="m231.136 167.974v85.601c9.76-7.409 14.008-21.371 30-21.371v-85.601c-15.993 0-20.241 13.962-30 21.371z" fill="#ff646f"/></g></svg>