<svg clip-rule="evenodd" fill-rule="evenodd" stroke-linejoin="round" stroke-miterlimit="2" viewBox="0 0 32 32" xmlns="http://www.w3.org/2000/svg"><path d="m1 13.999s0-4.965 0-4.999c0-.379.214-.725.553-.894l14-7c.281-.141.613-.141.894 0l14 7c.339.169.553.515.553.894v4.999c0 .379-.214.726-.553.895l-1.447.724v8.382c0 .379-.214.725-.553.894l-12 6.001c-.28.139-.611.141-.894-.001l-12-6c-.339-.169-.553-.515-.553-.894v-8.382l-1.447-.724c-.339-.169-.553-.516-.553-.895zm4 2.619 10 5v6.764l-10-5zm22 0v6.764s-10 5-10 5v-6.764zm-20.81 6.465 1.5.8c.487.259 1.093.074 1.353-.413.259-.487.075-1.093-.413-1.353l-1.5-.799c-.487-.259-1.093-.075-1.352.412-.26.487-.075 1.094.412 1.353zm22.807-12.463-11.997 5.998v2.764l11.999-6zm-25.996 2.762 11.999 6v-2.764l-11.997-5.998zm12.999-10.264 11.764 5.882s-11.764 5.882-11.764 5.882-11.764-5.882-11.764-5.882z"/></svg>